<svg width="518" height="419" viewBox="0 0 518 419" fill="none" xmlns="http://www.w3.org/2000/svg">
<g clip-path="url(#clip0_415_86)">
<path d="M260.302 104.018C276.795 99.7095 290.955 91.2406 302.025 77.2603C302.869 76.7177 303.473 75.846 303.705 74.8364C303.938 73.8268 303.779 72.7617 303.264 71.8749L284.008 38.8067C283.491 37.921 282.66 37.2868 281.698 37.0431C280.736 36.7994 279.721 36.9661 278.876 37.5067L237.153 64.2643C236.309 64.8068 235.705 65.6785 235.473 66.6881C235.24 67.6977 235.399 68.7628 235.914 69.6496L255.17 102.718C255.687 103.603 256.518 104.238 257.48 104.481C258.442 104.725 259.457 104.558 260.302 104.018Z" fill="#E6E6E6"/>
<path d="M271.427 93.3995C280.111 92.4046 289.136 85.1208 298.25 76.1973C299.041 75.6891 299.607 74.8727 299.824 73.9272C300.042 72.9817 299.893 71.9842 299.41 71.1537L282.862 42.7343C282.377 41.9049 281.6 41.3108 280.699 41.0826C279.798 40.8543 278.847 41.0104 278.056 41.5167L240.928 65.3273C240.137 65.8354 239.571 66.6519 239.354 67.5974C239.136 68.543 239.285 69.5405 239.768 70.371L250.019 87.9762C252.176 91.6707 255.641 94.3166 259.655 95.3333C263.668 96.35 267.902 95.6545 271.427 93.3995Z" fill="white"/>
<path d="M190.88 156.635C207.373 152.327 221.533 143.858 232.603 129.877C233.447 129.335 234.052 128.463 234.284 127.454C234.516 126.444 234.357 125.379 233.842 124.492L214.586 91.4238C214.069 90.5382 213.239 89.904 212.277 89.6603C211.315 89.4166 210.3 89.5833 209.455 90.1239L167.731 116.881C166.888 117.424 166.283 118.296 166.051 119.305C165.819 120.315 165.978 121.38 166.493 122.267L185.749 155.335C186.266 156.221 187.096 156.855 188.058 157.099C189.02 157.342 190.035 157.176 190.88 156.635Z" fill="#E6E6E6"/>
<path d="M202.005 146.017C210.689 145.022 219.714 137.738 228.829 128.814C229.619 128.306 230.185 127.49 230.403 126.544C230.62 125.599 230.471 124.601 229.989 123.771L213.44 95.3515C212.956 94.522 212.178 93.928 211.277 93.6998C210.376 93.4715 209.425 93.6276 208.634 94.1338L171.506 117.944C170.716 118.453 170.15 119.269 169.932 120.215C169.715 121.16 169.864 122.158 170.346 122.988L180.598 140.593C182.754 144.288 186.22 146.934 190.233 147.95C194.246 148.967 198.48 148.272 202.005 146.017Z" fill="white"/>
<path d="M245.646 177.681C262.139 173.373 276.299 164.904 287.369 150.924C288.213 150.381 288.817 149.51 289.05 148.5C289.282 147.49 289.123 146.425 288.608 145.538L269.352 112.47C268.835 111.585 268.004 110.95 267.042 110.707C266.08 110.463 265.066 110.63 264.22 111.17L222.497 137.928C221.653 138.47 221.049 139.342 220.817 140.352C220.585 141.361 220.743 142.426 221.259 143.313L240.514 176.381C241.031 177.267 241.862 177.901 242.824 178.145C243.786 178.389 244.801 178.222 245.646 177.681Z" fill="#E6E6E6"/>
<path d="M256.771 167.063C265.455 166.068 274.48 158.784 283.595 149.861C284.385 149.353 284.951 148.536 285.168 147.591C285.386 146.645 285.237 145.648 284.755 144.817L268.206 116.398C267.722 115.568 266.944 114.974 266.043 114.746C265.142 114.518 264.191 114.674 263.4 115.18L226.272 138.991C225.482 139.499 224.916 140.315 224.698 141.261C224.481 142.207 224.629 143.204 225.112 144.035L235.364 161.64C237.52 165.334 240.985 167.98 244.999 168.997C249.012 170.014 253.246 169.318 256.771 167.063Z" fill="white"/>
<path d="M451.535 401.342C451.979 401.363 452.418 401.241 452.793 400.992C453.168 400.743 453.461 400.378 453.633 399.948C453.804 399.518 453.845 399.044 453.751 398.588C453.656 398.133 453.431 397.719 453.105 397.403L452.956 396.784C452.976 396.734 452.996 396.685 453.015 396.635C453.462 395.528 454.211 394.583 455.168 393.921C456.124 393.258 457.246 392.907 458.392 392.912C459.538 392.916 460.657 393.276 461.609 393.946C462.561 394.616 463.303 395.566 463.742 396.677C465.497 401.112 467.73 405.554 468.28 410.242C468.523 412.315 468.421 414.416 467.978 416.452C472.099 407.018 474.239 396.765 474.253 386.388C474.254 383.784 474.116 381.182 473.84 378.594C473.612 376.473 473.295 374.366 472.891 372.275C470.682 360.927 465.94 350.292 459.054 341.241C455.721 339.333 453.026 336.398 451.331 332.833C450.718 331.551 450.284 330.183 450.043 328.771C450.419 328.822 451.461 322.814 451.177 322.445C451.701 321.611 452.639 321.196 453.211 320.382C456.057 316.333 459.978 317.04 462.025 322.542C466.397 324.858 466.44 328.699 463.757 332.393C462.05 334.743 461.815 337.923 460.317 340.439C460.472 340.646 460.632 340.847 460.786 341.054C463.603 344.855 466.057 348.936 468.115 353.239C467.615 348.418 468.212 343.541 469.858 339.01C471.526 334.786 474.653 331.229 477.407 327.578C480.714 323.193 487.496 325.107 488.079 330.666C488.085 330.72 488.09 330.774 488.095 330.828C487.687 331.07 487.286 331.327 486.894 331.599C486.402 331.944 486.021 332.437 485.8 333.013C485.58 333.589 485.53 334.222 485.658 334.829C485.786 335.435 486.086 335.987 486.518 336.411C486.95 336.836 487.494 337.114 488.079 337.208L488.139 337.218C487.993 338.765 487.735 340.298 487.368 341.804C490.901 356.14 483.274 361.362 472.385 361.596C472.145 361.725 471.911 361.855 471.67 361.978C473.738 368.127 475.035 374.532 475.528 381.033C475.808 384.868 475.791 388.72 475.479 392.552L475.498 392.416C476.287 388.155 478.453 384.31 481.63 381.531C486.349 377.462 493.017 375.964 498.108 372.694C498.649 372.329 499.278 372.135 499.921 372.133C500.564 372.131 501.194 372.323 501.737 372.685C502.28 373.046 502.713 373.563 502.985 374.175C503.257 374.786 503.356 375.467 503.272 376.136C503.265 376.183 503.258 376.231 503.251 376.279C502.492 376.603 501.753 376.977 501.038 377.397C500.629 377.64 500.229 377.897 499.837 378.168C499.345 378.514 498.964 379.007 498.743 379.583C498.523 380.159 498.473 380.792 498.601 381.398C498.729 382.005 499.029 382.556 499.461 382.981C499.893 383.406 500.437 383.684 501.022 383.778L501.082 383.788C501.125 383.794 501.162 383.801 501.205 383.807C499.908 387.057 498.088 390.048 495.824 392.649C493.616 405.164 484.129 406.351 473.981 402.707H473.975C472.862 407.784 471.249 412.727 469.162 417.454H451.966C451.904 417.254 451.849 417.047 451.794 416.846C453.385 416.951 454.983 416.851 456.552 416.549C455.276 414.906 454 413.25 452.724 411.607C452.696 411.576 452.669 411.544 452.644 411.51C451.997 410.669 451.344 409.835 450.697 408.994L450.696 408.993C450.662 406.415 450.944 403.844 451.535 401.342Z" fill="#F2F2F2"/>
<path d="M332.045 101.057C329.813 101.057 328.004 99.1653 328.004 96.8316C328.004 94.4978 329.813 92.606 332.045 92.606C334.277 92.606 336.086 94.4978 336.086 96.8316C336.086 99.1653 334.277 101.057 332.045 101.057Z" fill="#E6E6E6"/>
<path d="M466.151 396.916L459.377 401.538L439.166 376.32L449.163 369.498L466.151 396.916Z" fill="#FFB6B6"/>
<path d="M470.984 404.169L450.155 418.383L449.984 418.106C448.586 415.85 448.099 413.103 448.631 410.47C449.163 407.837 450.669 405.533 452.819 404.066L454.747 398.44L463.723 396.625L465.541 395.384L470.984 404.169Z" fill="#2F2E41"/>
<path d="M350.071 409.027L341.991 409.026L338.148 376.322L350.072 376.323L350.071 409.027Z" fill="#FFB6B6"/>
<path d="M350.355 417.873L325.51 417.872V417.542C325.51 414.85 326.529 412.269 328.342 410.366C330.156 408.463 332.615 407.394 335.18 407.393L339.719 403.78L348.186 407.394L350.355 407.394L350.355 417.873Z" fill="#2F2E41"/>
<path d="M433.7 207.219L361.249 208.89L354.067 218.311C354.067 218.311 354.688 214.99 354.136 218.638C353.583 222.286 339.605 295.023 342.248 297.462C344.89 299.902 337.238 316.745 336.676 317.772C336.114 318.799 330.056 369.498 336.676 373.667L339.162 391.363H350.732C350.732 391.363 362.323 377.287 359.991 374.735C357.658 372.183 364.329 363.698 364.585 359.148C364.84 354.598 367.275 333.96 365.388 330.651C363.501 327.342 360.95 314.924 365.737 310.11C370.525 305.296 392.854 246.137 392.854 246.137C392.854 246.137 399.343 315.492 399.328 320.937C399.308 328.019 403.739 324.514 403.739 330.732C403.739 331.988 418.169 364.272 427.868 374.364L447.923 390.554L457.179 383.268V372.745C457.179 372.745 448.601 353.219 445.609 350.079C442.616 346.939 431.568 337.326 431.568 332.93C431.568 328.534 426.367 327.002 429.865 321.173C433.363 315.345 432.166 312.832 430.969 310.32C429.772 307.808 432.042 204.876 432.042 204.876L433.7 207.219Z" fill="#2F2E41"/>
<path d="M419.982 63.6222L388.547 62.0371L380.503 75.8864C380.503 75.8864 357.007 78.3612 360.367 87.635C363.727 96.9087 368.913 160.497 364.163 168.449C361.657 172.646 357.414 186.689 353.965 199.019C353.297 201.41 353.179 203.933 353.621 206.381C354.063 208.83 355.051 211.133 356.506 213.103C357.96 215.072 359.839 216.652 361.987 217.711C364.136 218.771 366.494 219.281 368.867 219.2C391.226 218.426 424.433 216.592 428.361 212.47C434.345 206.189 439.731 201.165 436.141 199.281C432.55 197.396 427.414 170.068 427.414 170.068C427.414 170.068 451.256 91.2548 445.033 88.9332C438.81 86.6116 421.438 75.8864 421.438 75.8864L419.982 63.6222Z" fill="#3F3D56"/>
<path d="M403.49 54.5935C391.398 54.5935 381.596 44.3069 381.596 31.6178C381.596 18.9287 391.398 8.64209 403.49 8.64209C415.581 8.64209 425.383 18.9287 425.383 31.6178C425.383 44.3069 415.581 54.5935 403.49 54.5935Z" fill="#FFB6B6"/>
<path d="M517.086 418.751L273.835 419C273.592 418.999 273.36 418.897 273.189 418.716C273.017 418.536 272.921 418.291 272.921 418.036C272.921 417.782 273.017 417.537 273.189 417.356C273.36 417.176 273.592 417.074 273.835 417.072L517.086 416.824C517.329 416.825 517.562 416.927 517.733 417.108C517.904 417.288 518 417.533 518 417.788C518 418.042 517.904 418.287 517.733 418.467C517.562 418.648 517.329 418.75 517.086 418.751Z" fill="#CACACA"/>
<path d="M420.98 216L427.143 196.531L438.231 198.674L431.018 219.014C431.457 220.206 431.57 221.503 431.345 222.758C431.119 224.014 430.565 225.178 429.744 226.121C428.923 227.064 427.867 227.748 426.696 228.096C425.524 228.444 424.284 228.442 423.113 228.091C421.943 227.739 420.889 227.052 420.07 226.107C419.252 225.161 418.701 223.995 418.479 222.739C418.257 221.482 418.374 220.186 418.816 218.996C419.258 217.805 420.007 216.768 420.98 216Z" fill="#FFB6B6"/>
<path d="M443.243 89.1021L443.535 89.2299C446.254 90.4197 448.656 92.2872 450.532 94.6705C452.408 97.0537 453.703 99.8811 454.304 102.908C455.875 110.803 457.422 122.222 456.199 132.914C454.04 151.799 452.6 160.108 449.721 166.151C446.842 172.194 446.122 169.928 446.842 174.461C447.562 178.993 451.161 175.216 447.562 181.259C443.963 187.302 441.803 185.791 443.243 188.813C444.682 191.835 446.842 191.834 443.963 195.611C441.084 199.388 441.084 200.899 440.364 202.41C439.644 203.921 437.484 215.251 437.484 215.251C437.484 215.251 425.968 211.475 419.49 212.985C419.49 212.985 425.248 202.41 423.808 200.144C422.369 197.878 420.209 197.122 422.369 194.856C424.528 192.59 428.127 193.345 424.528 191.079C420.929 188.813 427.407 165.396 427.407 165.396L443.243 89.1021Z" fill="#3F3D56"/>
<path d="M270.101 132.125L289.052 127.091L293.302 138.051L273.086 142.625C272.365 143.654 271.385 144.452 270.256 144.929C269.127 145.406 267.893 145.543 266.693 145.325C265.494 145.106 264.376 144.541 263.466 143.693C262.556 142.844 261.89 141.746 261.542 140.522C261.194 139.298 261.178 137.996 261.496 136.763C261.815 135.53 262.454 134.414 263.344 133.542C264.233 132.669 265.336 132.075 266.53 131.824C267.724 131.574 268.961 131.678 270.101 132.125Z" fill="#FFB6B6"/>
<path d="M383.98 83.479L384.035 83.8064C384.544 86.8514 384.337 89.9808 383.434 92.9234C382.531 95.866 380.958 98.5332 378.851 100.694C373.358 106.335 365.022 113.852 355.778 118.529C339.452 126.788 332.006 129.99 325.603 130.698C319.2 131.406 320.632 129.549 317.381 132.626C314.129 135.703 319.1 136.852 312.31 136.923C305.519 136.995 305.57 134.272 303.919 137.172C302.268 140.072 303.431 141.982 298.848 141.469C294.265 140.957 293.052 141.771 291.451 141.948C289.85 142.125 279.59 146.317 279.59 146.317C279.59 146.317 276.421 134.099 271.719 129.184C271.719 129.184 283.311 128.581 284.356 126.088C285.4 123.594 284.844 121.278 287.826 121.967C290.809 122.657 292.14 126.246 292.022 121.843C291.903 117.44 369.563 77.7866 369.563 77.7866L383.98 83.479Z" fill="#3F3D56"/>
<path d="M377.276 27.5984C379.636 28.3674 381.912 28.8208 383.447 26.7889C384.982 24.7571 384.581 22.4339 386.864 21.4544C388.773 20.7825 390.853 20.8835 392.695 21.7377C393.027 21.8672 393.351 22.0129 393.667 22.1586C393.845 21.9968 394.022 21.843 394.215 21.6972C395.666 20.6142 397.458 20.1564 399.221 20.4182C397.932 21.0715 396.872 22.1334 396.19 23.4538C396.822 23.7857 397.462 24.1176 398.11 24.4009C400.833 25.5699 403.778 26.057 406.712 25.8238C409.645 25.5905 412.487 24.6433 415.011 23.0572C412.481 30.0511 414.447 32.5444 418.158 38.9313L418.304 39.3036C417.934 37.628 422.786 35.6933 422.786 38.1218C422.573 40.6098 422.054 43.0586 421.243 45.4072C426.002 37.887 428.81 29.0879 426.967 20.6449C426.573 18.8721 426.396 16.9698 425.324 15.5289C424.251 14.0961 422.277 13.2543 420.719 14.0638C420.525 11.3184 419.627 8.67924 418.119 6.42691C416.611 4.17458 414.549 2.39325 412.153 1.27229C409.757 0.151331 407.117 -0.267363 404.512 0.0607371C401.908 0.388837 399.437 1.45147 397.362 3.13564C395.434 4.69796 393.914 6.74596 392.194 8.56731C390.474 10.3887 388.438 12.0481 386.031 12.5014C384.504 12.7848 382.784 12.6148 381.565 13.6266C380.153 14.8004 380.138 16.8646 380.146 18.8478C381.527 18.8065 382.888 19.1982 384.056 19.973C382.627 20.0107 381.245 20.5206 380.107 21.4301C380.085 21.4443 380.064 21.4605 380.045 21.4786C379.629 24.8138 379.798 25.5181 377.276 27.5984Z" fill="#2F2E41"/>
<path d="M276.478 42.4268C274.246 42.4268 272.436 40.5349 272.436 38.2012C272.436 35.8675 274.246 33.9756 276.478 33.9756C278.709 33.9756 280.519 35.8675 280.519 38.2012C280.519 40.5349 278.709 42.4268 276.478 42.4268Z" fill="#E6E6E6"/>
<path d="M233.007 47.3931C230.775 47.3931 228.966 45.5012 228.966 43.1675C228.966 40.8338 230.775 38.9419 233.007 38.9419C235.239 38.9419 237.048 40.8338 237.048 43.1675C237.048 45.5012 235.239 47.3931 233.007 47.3931Z" fill="#E6E6E6"/>
<path d="M201.155 78.8384C198.923 78.8384 197.113 76.9466 197.113 74.6128C197.113 72.2791 198.923 70.3872 201.155 70.3872C203.386 70.3872 205.196 72.2791 205.196 74.6128C205.196 76.9466 203.386 78.8384 201.155 78.8384Z" fill="#E6E6E6"/>
<path d="M216.098 163.948C213.866 163.948 212.056 162.056 212.056 159.722C212.056 157.388 213.866 155.497 216.098 155.497C218.33 155.497 220.139 157.388 220.139 159.722C220.139 162.056 218.33 163.948 216.098 163.948Z" fill="#E6E6E6"/>
<path d="M255.261 183.457C253.029 183.457 251.22 181.565 251.22 179.231C251.22 176.897 253.029 175.005 255.261 175.005C257.493 175.005 259.302 176.897 259.302 179.231C259.302 181.565 257.493 183.457 255.261 183.457Z" fill="#E6E6E6"/>
<path d="M296.179 175.534C293.947 175.534 292.138 173.642 292.138 171.308C292.138 168.974 293.947 167.083 296.179 167.083C298.411 167.083 300.22 168.974 300.22 171.308C300.22 173.642 298.411 175.534 296.179 175.534Z" fill="#E6E6E6"/>
<path d="M324.44 144.088C322.209 144.088 320.399 142.197 320.399 139.863C320.399 137.529 322.209 135.637 324.44 135.637C326.672 135.637 328.482 137.529 328.482 139.863C328.482 142.197 326.672 144.088 324.44 144.088Z" fill="#E6E6E6"/>
<path d="M314.365 62.4986C312.133 62.4986 310.323 60.6067 310.323 58.273C310.323 55.9392 312.133 54.0474 314.365 54.0474C316.596 54.0474 318.406 55.9392 318.406 58.273C318.406 60.6067 316.596 62.4986 314.365 62.4986Z" fill="#E6E6E6"/>
<path d="M302.241 102.114C300.009 102.114 298.199 100.222 298.199 97.8882C298.199 95.5545 300.009 93.6626 302.241 93.6626C304.473 93.6626 306.282 95.5545 306.282 97.8882C306.282 100.222 304.473 102.114 302.241 102.114Z" fill="#E6E6E6"/>
<path d="M238.086 84.6832C235.854 84.6832 234.044 82.7913 234.044 80.4575C234.044 78.1238 235.854 76.2319 238.086 76.2319C240.318 76.2319 242.127 78.1238 242.127 80.4575C242.127 82.7913 240.318 84.6832 238.086 84.6832Z" fill="#E6E6E6"/>
<path d="M228.488 123.242C226.256 123.242 224.446 121.35 224.446 119.016C224.446 116.682 226.256 114.791 228.488 114.791C230.719 114.791 232.529 116.682 232.529 119.016C232.529 121.35 230.719 123.242 228.488 123.242Z" fill="#E6E6E6"/>
<path d="M200.199 132.221C193.782 132.221 188.58 126.782 188.58 120.072C188.58 113.363 193.782 107.924 200.199 107.924C206.616 107.924 211.817 113.363 211.817 120.072C211.817 126.782 206.616 132.221 200.199 132.221Z" fill="#FE5656"/>
<path d="M257.787 154.934C251.37 154.934 246.168 149.495 246.168 142.785C246.168 136.076 251.37 130.637 257.787 130.637C264.204 130.637 269.406 136.076 269.406 142.785C269.406 149.495 264.204 154.934 257.787 154.934Z" fill="#FE5656"/>
<path d="M272.436 80.4574C266.019 80.4574 260.818 75.0183 260.818 68.3088C260.818 61.5993 266.019 56.1602 272.436 56.1602C278.853 56.1602 284.055 61.5993 284.055 68.3088C284.055 75.0183 278.853 80.4574 272.436 80.4574Z" fill="#FE5656"/>
<path d="M262.123 63.4803C243.277 57.3343 223.102 63.9809 204.153 58.3079C199.795 57.0567 195.675 55.026 191.974 52.3053C188.818 49.7934 185.854 47.0254 183.11 44.0266C177.41 38.11 171.219 31.8973 162.655 31.9658C151.378 32.0561 142.719 40.8475 135.202 48.6102C134.139 49.7074 132.502 47.9914 133.566 46.893C140.473 39.7599 147.936 32.2345 157.767 30.1053C162.178 29.0788 166.781 29.4801 170.97 31.2563C174.604 32.9891 177.924 35.3712 180.781 38.2964C183.808 41.2104 186.601 44.383 189.67 47.2509C192.874 50.3095 196.564 52.7541 200.574 54.4734C209.261 58.1035 218.79 58.5414 228.029 58.4358C239.627 58.3031 251.502 57.4742 262.738 61.1386C264.156 61.6009 263.551 63.9459 262.123 63.4803Z" fill="#3F3D56"/>
<path d="M131.069 32.2438L125.276 42.9612L122.473 48.1471C121.974 49.0687 121.462 49.9836 120.977 50.9129C120.68 51.4836 120.029 52.5132 120.65 53.0541C121.196 53.334 121.81 53.4346 122.411 53.3425C123.432 53.3447 124.454 53.3208 125.475 53.3099L131.221 53.2488L143.094 53.1225C143.394 53.1334 143.678 53.2661 143.887 53.4927C144.095 53.7192 144.212 54.0218 144.212 54.3368C144.212 54.6517 144.095 54.9544 143.887 55.1809C143.678 55.4074 143.394 55.5401 143.094 55.551C136.201 55.6243 129.304 55.7771 122.411 55.7709C121.208 55.8916 120.005 55.5462 119.029 54.7998C118.55 54.3003 118.234 53.6557 118.124 52.9571C118.014 52.2585 118.115 51.5413 118.415 50.9069C119.095 49.3505 119.876 47.8455 120.755 46.4028L123.278 41.7355L129.071 31.0181C129.231 30.7517 129.484 30.561 129.775 30.4863C130.067 30.4116 130.375 30.4587 130.634 30.6177C130.893 30.7767 131.084 31.0352 131.165 31.3386C131.246 31.6419 131.212 31.9665 131.069 32.2438Z" fill="#3F3D56"/>
<path d="M54.4974 58.5053H107.744C108.036 58.5064 108.326 58.4471 108.596 58.3306C108.866 58.2141 109.112 58.0427 109.318 57.8264C109.525 57.6101 109.69 57.353 109.802 57.07C109.914 56.7869 109.971 56.4835 109.971 56.177C109.971 55.8705 109.914 55.567 109.802 55.2839C109.69 55.0009 109.525 54.7438 109.318 54.5275C109.112 54.3112 108.866 54.1399 108.596 54.0234C108.326 53.9069 108.036 53.8475 107.744 53.8486H54.4974C54.2053 53.8475 53.9159 53.9069 53.6458 54.0234C53.3757 54.1399 53.1301 54.3112 52.9232 54.5275C52.7163 54.7438 52.5521 55.0009 52.4401 55.2839C52.3281 55.567 52.2705 55.8705 52.2705 56.177C52.2705 56.4835 52.3281 56.7869 52.4401 57.07C52.5521 57.353 52.7163 57.6101 52.9232 57.8264C53.1301 58.0427 53.3757 58.2141 53.6458 58.3306C53.9159 58.4471 54.2054 58.5064 54.4974 58.5053Z" fill="#FE5656"/>
<path d="M54.4974 96.0072H107.744C108.036 96.0084 108.326 95.949 108.596 95.8325C108.866 95.716 109.112 95.5447 109.318 95.3284C109.525 95.1121 109.69 94.855 109.802 94.5719C109.914 94.2889 109.971 93.9854 109.971 93.6789C109.971 93.3724 109.914 93.0689 109.802 92.7859C109.69 92.5028 109.525 92.2458 109.318 92.0295C109.112 91.8131 108.866 91.6418 108.596 91.5253C108.326 91.4088 108.036 91.3495 107.744 91.3506H54.4974C54.2053 91.3495 53.9159 91.4088 53.6458 91.5253C53.3757 91.6418 53.1301 91.8131 52.9232 92.0295C52.7163 92.2458 52.5521 92.5028 52.4401 92.7859C52.3281 93.0689 52.2705 93.3724 52.2705 93.6789C52.2705 93.9854 52.3281 94.2889 52.4401 94.5719C52.5521 94.855 52.7163 95.1121 52.9232 95.3284C53.1301 95.5447 53.3757 95.716 53.6458 95.8325C53.9159 95.949 54.2054 96.0084 54.4974 96.0072Z" fill="#E6E6E6"/>
<path d="M2.2266 77.2563H107.744C108.036 77.2574 108.326 77.198 108.596 77.0815C108.866 76.965 109.112 76.7937 109.318 76.5774C109.525 76.3611 109.69 76.104 109.802 75.821C109.914 75.5379 109.971 75.2344 109.971 74.9279C109.971 74.6215 109.914 74.318 109.802 74.0349C109.69 73.7519 109.525 73.4948 109.318 73.2785C109.112 73.0622 108.866 72.8909 108.596 72.7744C108.326 72.6579 108.036 72.5985 107.744 72.5996H2.2266C1.93455 72.5985 1.64516 72.6579 1.37502 72.7744C1.10489 72.8909 0.859299 73.0622 0.652397 73.2785C0.445503 73.4948 0.281334 73.7519 0.169319 74.0349C0.0573044 74.318 -0.000358582 74.6215 -0.000358582 74.9279C-0.000358582 75.2344 0.0573044 75.5379 0.169319 75.821C0.281334 76.104 0.445503 76.3611 0.652397 76.5774C0.859299 76.7937 1.10489 76.965 1.37502 77.0815C1.64516 77.198 1.93455 77.2574 2.2266 77.2563Z" fill="#E6E6E6"/>
<path d="M78.7449 173.653H131.992C132.284 173.654 132.573 173.595 132.843 173.479C133.114 173.362 133.359 173.191 133.566 172.974C133.773 172.758 133.937 172.501 134.049 172.218C134.161 171.935 134.219 171.631 134.219 171.325C134.219 171.018 134.161 170.715 134.049 170.432C133.937 170.149 133.773 169.892 133.566 169.675C133.359 169.459 133.114 169.288 132.843 169.171C132.573 169.055 132.284 168.995 131.992 168.997H78.7449C78.4529 168.995 78.1635 169.055 77.8934 169.171C77.6232 169.288 77.3777 169.459 77.1708 169.675C76.9639 169.892 76.7997 170.149 76.6877 170.432C76.5757 170.715 76.518 171.018 76.518 171.325C76.518 171.631 76.5757 171.935 76.6877 172.218C76.7997 172.501 76.9639 172.758 77.1708 172.974C77.3777 173.191 77.6232 173.362 77.8934 173.479C78.1635 173.595 78.4529 173.654 78.7449 173.653Z" fill="#FE5656"/>
<path d="M78.7449 211.155H131.992C132.284 211.156 132.573 211.097 132.843 210.98C133.114 210.864 133.359 210.693 133.566 210.476C133.773 210.26 133.937 210.003 134.049 209.72C134.161 209.437 134.219 209.133 134.219 208.827C134.219 208.52 134.161 208.217 134.049 207.934C133.937 207.651 133.773 207.394 133.566 207.177C133.359 206.961 133.114 206.79 132.843 206.673C132.573 206.557 132.284 206.497 131.992 206.499H78.7449C78.4529 206.497 78.1635 206.557 77.8934 206.673C77.6232 206.79 77.3777 206.961 77.1708 207.177C76.9639 207.394 76.7997 207.651 76.6877 207.934C76.5757 208.217 76.518 208.52 76.518 208.827C76.518 209.133 76.5757 209.437 76.6877 209.72C76.7997 210.003 76.9639 210.26 77.1708 210.476C77.3777 210.693 77.6232 210.864 77.8934 210.98C78.1635 211.097 78.4529 211.156 78.7449 211.155Z" fill="#E6E6E6"/>
<path d="M26.4741 192.404H131.992C132.284 192.405 132.573 192.346 132.843 192.229C133.114 192.113 133.359 191.942 133.566 191.725C133.773 191.509 133.937 191.252 134.049 190.969C134.161 190.686 134.219 190.382 134.219 190.076C134.219 189.769 134.161 189.466 134.049 189.183C133.937 188.9 133.773 188.643 133.566 188.426C133.359 188.21 133.114 188.039 132.843 187.922C132.573 187.806 132.284 187.746 131.992 187.748H26.4741C26.1821 187.746 25.8927 187.806 25.6225 187.922C25.3524 188.039 25.1069 188.21 24.9 188.426C24.6931 188.643 24.5289 188.9 24.4169 189.183C24.3049 189.466 24.2472 189.769 24.2472 190.076C24.2472 190.382 24.3049 190.686 24.4169 190.969C24.5289 191.252 24.6931 191.509 24.9 191.725C25.1069 191.942 25.3524 192.113 25.6225 192.229C25.8927 192.346 26.1821 192.405 26.4741 192.404Z" fill="#E6E6E6"/>
<path d="M315.159 214.325H368.406C368.698 214.326 368.987 214.266 369.257 214.15C369.528 214.033 369.773 213.862 369.98 213.646C370.187 213.429 370.351 213.172 370.463 212.889C370.575 212.606 370.633 212.303 370.633 211.996C370.633 211.69 370.575 211.386 370.463 211.103C370.351 210.82 370.187 210.563 369.98 210.347C369.773 210.131 369.528 209.959 369.257 209.843C368.987 209.726 368.698 209.667 368.406 209.668H315.159C314.867 209.667 314.577 209.726 314.307 209.843C314.037 209.959 313.792 210.131 313.585 210.347C313.378 210.563 313.214 210.82 313.102 211.103C312.99 211.386 312.932 211.69 312.932 211.996C312.932 212.303 312.99 212.606 313.102 212.889C313.214 213.172 313.378 213.429 313.585 213.646C313.792 213.862 314.037 214.033 314.307 214.15C314.577 214.266 314.867 214.326 315.159 214.325Z" fill="#FE5656"/>
<path d="M315.159 251.827H368.406C368.698 251.828 368.987 251.769 369.257 251.652C369.528 251.536 369.773 251.365 369.98 251.148C370.187 250.932 370.351 250.675 370.463 250.392C370.575 250.109 370.633 249.805 370.633 249.499C370.633 249.192 370.575 248.889 370.463 248.606C370.351 248.323 370.187 248.066 369.98 247.849C369.773 247.633 369.528 247.462 369.257 247.345C368.987 247.229 368.698 247.169 368.406 247.17H315.159C314.867 247.169 314.577 247.229 314.307 247.345C314.037 247.462 313.792 247.633 313.585 247.849C313.378 248.066 313.214 248.323 313.102 248.606C312.99 248.889 312.932 249.192 312.932 249.499C312.932 249.805 312.99 250.109 313.102 250.392C313.214 250.675 313.378 250.932 313.585 251.148C313.792 251.365 314.037 251.536 314.307 251.652C314.577 251.769 314.867 251.828 315.159 251.827Z" fill="#E6E6E6"/>
<path d="M262.888 233.076H368.406C368.698 233.077 368.987 233.017 369.257 232.901C369.528 232.784 369.773 232.613 369.98 232.397C370.187 232.18 370.351 231.923 370.463 231.64C370.575 231.357 370.633 231.054 370.633 230.747C370.633 230.441 370.575 230.137 370.463 229.854C370.351 229.571 370.187 229.314 369.98 229.098C369.773 228.881 369.528 228.71 369.257 228.594C368.987 228.477 368.698 228.418 368.406 228.419H262.888C262.596 228.418 262.307 228.477 262.037 228.594C261.766 228.71 261.521 228.881 261.314 229.098C261.107 229.314 260.943 229.571 260.831 229.854C260.719 230.137 260.661 230.441 260.661 230.747C260.661 231.054 260.719 231.357 260.831 231.64C260.943 231.923 261.107 232.18 261.314 232.397C261.521 232.613 261.766 232.784 262.037 232.901C262.307 233.017 262.596 233.077 262.888 233.076Z" fill="#E6E6E6"/>
<path d="M202.226 120.304L162.413 151.826L151.081 160.798C149.892 161.739 148.738 159.631 149.913 158.701L189.727 127.179L201.058 118.207C202.247 117.266 203.402 119.373 202.226 120.304Z" fill="#3F3D56"/>
<path d="M168.348 162.721C159.665 167.093 150.225 169.566 140.603 169.988C140.425 169.986 140.251 169.941 140.092 169.857C139.934 169.774 139.795 169.653 139.688 169.505C139.58 169.357 139.506 169.185 139.472 169.002C139.437 168.82 139.442 168.631 139.487 168.451L145.653 142.48C146.013 140.964 148.245 141.606 147.884 143.125L141.718 169.097L140.603 167.56C149.818 167.16 158.86 164.8 167.18 160.624C168.516 159.952 169.692 162.045 168.348 162.721Z" fill="#3F3D56"/>
<path d="M259.289 142.227L287.897 185.164L295.961 197.266C296.816 198.55 294.811 199.765 293.962 198.492L265.354 155.554L257.291 143.452C256.435 142.169 258.441 140.954 259.289 142.227Z" fill="#3F3D56"/>
<path d="M298.482 179.302C302.322 188.537 304.32 198.499 304.351 208.574C304.349 208.76 304.306 208.944 304.227 209.11C304.147 209.276 304.032 209.421 303.891 209.534C303.75 209.647 303.586 209.725 303.412 209.761C303.238 209.798 303.058 209.792 302.886 209.745L278.312 202.275C278.025 202.181 277.785 201.973 277.641 201.697C277.498 201.42 277.462 201.096 277.542 200.792C277.621 200.488 277.81 200.229 278.069 200.069C278.327 199.909 278.635 199.86 278.927 199.933L303.502 207.403L302.037 208.574C302.026 198.926 300.136 189.382 296.484 180.528C295.896 179.109 297.889 177.871 298.482 179.302Z" fill="#3F3D56"/>
</g>
<defs>
<clipPath id="clip0_415_86">
<rect width="518" height="419" fill="white" transform="matrix(-1 0 0 1 518 0)"/>
</clipPath>
</defs>
</svg>
