<svg width="462" height="466" viewBox="0 0 462 466" fill="none" xmlns="http://www.w3.org/2000/svg">
<g clip-path="url(#clip0_415_57)">
<path d="M8.11074 456.711C10.7238 459.718 13.9631 462.289 17.6665 464.294C18.4542 464.72 19.2627 465.123 20.0853 465.495H39.4432C39.2114 465.099 38.9862 464.696 38.7681 464.294C32.7661 453.479 30.884 441.33 33.3863 429.555C35.8887 417.78 42.6497 406.97 52.719 398.646C41.0183 401.732 30.2039 407.748 23.1301 416.28C19.6929 420.434 17.2486 425.127 15.9368 430.089C14.7677 420.165 16.6257 410.152 21.3299 401.023C11.8304 407.622 4.43283 416.658 1.61336 426.829C-1.20613 437.006 0.839855 448.299 8.11074 456.711Z" fill="#F0F0F0"/>
<path d="M0.268539 466H181.499V464.735H-7.62939e-05L0.268539 466Z" fill="#3F3D56"/>
<path d="M244.901 158.069C244.901 181.269 254.394 201.076 272.458 215.816C285.277 226.281 305.021 240.949 305.021 256.458V269.289H365.141V256.458C365.141 240.787 384.963 226.089 397.705 215.816C415.361 201.593 425.261 180.44 425.261 158.069V157.595C425.184 137.175 415.61 117.617 398.647 103.223C381.683 88.8299 358.718 80.7793 334.804 80.8422C310.889 80.9051 287.983 89.0764 271.123 103.559C254.264 118.041 244.832 137.649 244.901 158.069Z" fill="#FE5656"/>
<path d="M305.022 271.09C305.582 271.09 306.118 270.9 306.514 270.563C306.909 270.225 307.132 269.767 307.132 269.289V256.456C307.132 241.37 289.708 227.288 276.985 217.005C275.93 216.152 274.903 215.324 273.917 214.517C256.318 200.15 247.015 180.631 247.015 158.07C247.015 115.904 285.698 82.873 335.08 82.873H335.329C358.569 82.8952 380.853 90.7736 397.309 104.786C413.765 118.797 423.054 137.803 423.146 157.647V158.067C423.146 180.162 413.344 200.734 396.253 214.509C395.388 215.208 394.488 215.926 393.565 216.664C380.678 226.967 363.029 241.076 363.029 256.456V269.289C363.029 269.767 363.251 270.225 363.647 270.563C364.043 270.9 364.579 271.09 365.139 271.09C365.698 271.09 366.235 270.9 366.63 270.563C367.026 270.225 367.248 269.767 367.248 269.289V256.456C367.248 242.637 384.124 229.146 396.449 219.291C397.376 218.55 398.277 217.828 399.15 217.126C417.08 202.673 427.365 181.147 427.365 158.067V157.635C427.224 114.379 385.959 79.2682 335.335 79.2682H335.074C310.727 79.1601 287.327 87.3149 270.021 101.939C252.716 116.563 242.923 136.458 242.796 157.247C242.794 157.521 242.794 157.796 242.796 158.07C242.796 181.639 252.55 202.058 271.001 217.121C271.992 217.929 273.023 218.763 274.085 219.621C286.25 229.454 302.915 242.921 302.915 256.456V269.289C302.915 269.767 303.137 270.225 303.533 270.563C303.928 270.9 304.465 271.09 305.024 271.09H305.022Z" fill="#3F3D56"/>
<path d="M315.041 294.203H355.121C356.053 294.203 356.947 293.887 357.607 293.324C358.266 292.761 358.636 291.997 358.636 291.201C358.636 290.405 358.266 289.641 357.607 289.078C356.947 288.515 356.053 288.199 355.121 288.199H315.041C314.108 288.199 313.214 288.515 312.555 289.078C311.895 289.641 311.525 290.405 311.525 291.201C311.525 291.997 311.895 292.761 312.555 293.324C313.214 293.887 314.108 294.203 315.041 294.203Z" fill="#FE5656"/>
<path d="M330.771 314.317H339.397C342.393 314.318 345.333 313.623 347.901 312.305C348.281 312.115 348.576 311.822 348.738 311.472C348.9 311.122 348.919 310.735 348.793 310.375C348.677 310.005 348.421 309.678 348.064 309.445C347.708 309.212 347.271 309.087 346.823 309.089H323.345C322.896 309.087 322.46 309.212 322.103 309.445C321.747 309.678 321.491 310.005 321.375 310.375C321.248 310.736 321.268 311.122 321.429 311.472C321.591 311.822 321.886 312.115 322.267 312.305C324.835 313.623 327.775 314.318 330.771 314.317Z" fill="#3F3D56"/>
<path d="M315.034 303.686L355.352 303.682L355.477 303.453C355.596 303.033 355.6 302.595 355.491 302.172C355.381 301.75 355.16 301.355 354.844 301.017C354.524 300.67 354.115 300.39 353.649 300.197C353.184 300.005 352.673 299.906 352.156 299.907H318.012C317.495 299.906 316.984 300.005 316.518 300.198C316.052 300.39 315.644 300.67 315.324 301.017C315.01 301.35 314.79 301.74 314.679 302.157C314.568 302.574 314.569 303.007 314.683 303.423L314.747 303.655L315.034 303.686Z" fill="#3F3D56"/>
<path d="M428.319 87.3062C429.169 87.307 429.99 87.0439 430.63 86.5659L460.823 64.062C461.514 63.5358 461.935 62.7979 461.993 62.0085C462.051 61.2191 461.742 60.442 461.133 59.8462C460.524 59.2503 459.664 58.8838 458.74 58.8263C457.816 58.7688 456.903 59.025 456.199 59.5391L426.006 82.043C425.467 82.4449 425.084 82.9778 424.909 83.5704C424.734 84.1631 424.775 84.7872 425.026 85.3595C425.278 85.9317 425.728 86.4248 426.316 86.7727C426.905 87.1207 427.604 87.307 428.319 87.3068V87.3062Z" fill="#E4E4E4"/>
<path d="M246.85 87.3061C247.566 87.3064 248.265 87.1201 248.853 86.7721C249.441 86.4241 249.892 85.9311 250.143 85.3588C250.395 84.7866 250.435 84.1624 250.26 83.5698C250.085 82.9771 249.703 82.4443 249.163 82.0423L218.971 59.5367C218.267 59.0225 217.354 58.7664 216.43 58.8239C215.506 58.8814 214.646 59.2479 214.037 59.8437C213.428 60.4396 213.119 61.2166 213.177 62.006C213.235 62.7955 213.655 63.5334 214.347 64.0595L244.54 86.5634C245.179 87.0421 246 87.3061 246.85 87.3061Z" fill="#E4E4E4"/>
<path d="M305.022 283.549H365.142C366.075 283.549 366.969 283.232 367.628 282.669C368.288 282.106 368.658 281.343 368.658 280.546C368.658 279.75 368.288 278.987 367.628 278.424C366.969 277.861 366.075 277.544 365.142 277.544H305.022C304.09 277.544 303.195 277.861 302.536 278.424C301.877 278.987 301.506 279.75 301.506 280.546C301.506 281.343 301.877 282.106 302.536 282.669C303.195 283.232 304.09 283.549 305.022 283.549Z" fill="#FE5656"/>
<path d="M336.558 205.123L349.06 269.289H356.197L343.498 204.138C343.345 203.352 342.833 202.651 342.074 202.187C341.315 201.724 340.372 201.537 339.452 201.668C338.531 201.798 337.709 202.236 337.167 202.884C336.624 203.532 336.405 204.337 336.558 205.123Z" fill="#E6E6E6"/>
<path d="M312.531 269.289H319.668L332.17 205.123C332.323 204.337 332.104 203.532 331.562 202.884C331.019 202.236 330.197 201.798 329.277 201.668C328.357 201.537 327.413 201.724 326.654 202.187C325.895 202.651 325.383 203.352 325.23 204.138L312.531 269.289Z" fill="#E6E6E6"/>
<path d="M357.931 202.98C357.931 202.183 357.561 201.42 356.901 200.857C356.242 200.294 355.348 199.978 354.415 199.978H315.746C314.814 199.978 313.92 200.294 313.26 200.857C312.601 201.42 312.231 202.183 312.231 202.98C312.231 203.776 312.601 204.539 313.26 205.102C313.92 205.665 314.814 205.982 315.746 205.982H354.415C355.348 205.982 356.242 205.665 356.901 205.102C357.561 204.539 357.931 203.776 357.931 202.98Z" fill="#E6E6E6"/>
<path d="M335.081 57.339C336.013 57.339 336.907 57.0227 337.567 56.4597C338.226 55.8967 338.596 55.1331 338.596 54.3369V3.00204C338.596 2.20585 338.226 1.44227 337.567 0.879277C336.907 0.316285 336.013 0 335.081 0C334.148 0 333.254 0.316285 332.595 0.879277C331.935 1.44227 331.565 2.20585 331.565 3.00204V54.3369C331.565 55.1331 331.935 55.8967 332.595 56.4597C333.254 57.0227 334.148 57.339 335.081 57.339Z" fill="#E4E4E4"/>
<path d="M47.6861 457.6H56.3055L60.4062 429.208H47.6847L47.6861 457.6Z" fill="#FEB8B8"/>
<path d="M45.4871 464.735H73.2837V464.435C73.2835 461.985 72.1437 459.636 70.115 457.903C68.0863 456.171 65.3347 455.198 62.4656 455.197H45.4872L45.4871 464.735Z" fill="#2F2E41"/>
<path d="M113.176 457.358L121.504 455.456L116.878 427.123L104.586 429.929L113.176 457.358Z" fill="#FEB8B8"/>
<path d="M113.211 464.736L140.063 458.604L139.973 458.314C139.231 455.947 137.419 453.929 134.935 452.703C132.451 451.476 129.498 451.143 126.726 451.776L110.325 455.521L113.211 464.736Z" fill="#2F2E41"/>
<path d="M42.7266 298.485L35.5059 305.648L44.8439 451.212H64.7917L74.8469 339.206L106.031 454.216L126.769 449.874L107.913 303.794L42.7266 298.485Z" fill="#2F2E41"/>
<path d="M103.092 204.506L83.2306 195.997L52.6875 196.456L26.4035 207.94L41.3583 271.714L34.8984 304.964C59.8661 310.401 86.0058 310.585 111.075 305.5L111.275 305.459C111.275 305.459 96.4282 260.479 102.748 246.752L103.092 204.506Z" fill="#E6E6E6"/>
<path d="M45.6327 170.518C45.6548 165.43 48.0404 160.557 52.266 156.969C56.4916 153.38 62.2117 151.37 68.171 151.38C74.1304 151.389 79.8418 153.417 84.0518 157.019C88.2618 160.62 90.6262 165.501 90.6262 170.589C90.6262 175.678 88.2618 180.558 84.0518 184.16C79.8418 187.761 74.1304 189.789 68.171 189.799C62.2117 189.808 56.4916 187.798 52.266 184.21C48.0404 180.622 45.6548 175.749 45.6327 170.66V170.518Z" fill="#FEB8B8"/>
<path d="M105.833 251.002C105.406 251.94 104.743 252.786 103.891 253.481C103.039 254.176 102.019 254.703 100.903 255.025C99.7867 255.347 98.6014 255.457 97.4304 255.345C96.2595 255.234 95.1313 254.905 94.1255 254.381L53.7972 272.584L52.4915 264.196L91.6784 244.464C92.8213 243.08 94.5192 242.102 96.4505 241.715C98.3817 241.328 100.412 241.559 102.157 242.365C103.902 243.171 105.24 244.495 105.917 246.087C106.595 247.679 106.565 249.428 105.834 251.002H105.833Z" fill="#FEB8B8"/>
<path d="M52.0914 252.452C52.7487 253.287 53.6124 253.989 54.6217 254.508C55.631 255.027 56.7613 255.351 57.933 255.457C59.1047 255.563 60.2893 255.448 61.4034 255.12C62.5175 254.793 63.534 254.261 64.3812 253.562L108.399 263.79L108.016 253.14L64.2293 243.429C62.7594 242.292 60.8518 241.654 58.8681 241.637C56.8843 241.62 54.9622 242.225 53.4661 243.338C51.9699 244.45 51.0037 245.992 50.7505 247.673C50.4972 249.353 50.9746 251.054 52.0921 252.453L52.0914 252.452Z" fill="#FEB8B8"/>
<path d="M34.9862 208.402L26.4042 207.942C26.4042 207.942 16.3561 219.263 21.9293 231.548C21.9293 231.548 20.9639 275.678 43.2181 273.865C65.4724 272.052 72.5046 272.052 72.5046 272.052L65.8246 256.141L50.8804 252.201C50.8804 252.201 55.4861 234.853 46.7677 227.635L34.9862 208.402Z" fill="#E6E6E6"/>
<path d="M96.957 208.014L98.17 202.705C98.17 202.705 116.058 202.345 119.595 225.491C119.595 225.491 135.681 260.13 119.914 264.59C104.147 269.051 86.8034 264.59 86.8034 264.59L88.1092 249.313L105.456 246.292C105.456 246.292 96.4944 236.391 101.374 227.804L96.957 208.014Z" fill="#E6E6E6"/>
<path d="M60.3405 179.951C61.9949 179.397 63.8275 179.425 65.576 179.152C71.8295 178.168 76.6525 172.724 76.0586 167.318C75.9094 166.618 75.8957 165.901 76.018 165.197C76.4513 163.654 78.4592 162.826 80.3037 162.642C82.1482 162.457 84.0538 162.693 85.8481 162.283C88.6182 161.65 90.6879 159.492 91.3894 157.118C91.987 154.703 91.6752 152.189 90.4985 149.935L89.6377 151.467C88.7425 150.656 88.132 149.647 87.8755 148.554C87.1236 148.588 86.3948 148.787 85.7587 149.131C85.1227 149.475 84.6007 149.953 84.2428 150.519C83.1311 150.943 83.2668 148.774 82.1587 148.345C81.6596 148.242 81.1336 148.3 80.6819 148.509C78.24 149.208 75.6501 148.159 73.2303 147.407C69.0389 146.108 64.5486 145.67 60.1223 146.128C57.1812 146.434 54.2122 147.176 51.9233 148.781C50.1148 150.18 48.6443 151.868 47.5946 153.749C44.7701 158.257 42.6422 163.23 42.7001 168.344C42.7576 172.531 44.2659 176.609 47.0347 180.064C48.4776 181.857 53.138 188.075 56.2354 187.391C60.1266 186.533 55.6822 181.511 60.3405 179.951Z" fill="#2F2E41"/>
</g>
<defs>
<clipPath id="clip0_415_57">
<rect width="462" height="466" fill="white" transform="matrix(-1 0 0 1 462 0)"/>
</clipPath>
</defs>
</svg>
