<svg width="570" height="399" viewBox="0 0 570 399" fill="none" xmlns="http://www.w3.org/2000/svg">
<g clip-path="url(#clip0_409_161)">
<path d="M328.474 19.4194C333.364 29.0677 323.003 31.8006 311.136 36.9719C299.268 42.1433 290.387 47.7948 285.498 38.1465C280.608 28.4983 276.641 9.34822 293.43 2.03245C310.798 -5.53535 323.585 9.77115 328.474 19.4194Z" fill="#2F2E41"/>
<path d="M304.261 38.3936C313.085 38.3936 320.238 31.7606 320.238 23.5784C320.238 15.3962 313.085 8.76318 304.261 8.76318C295.438 8.76318 288.285 15.3962 288.285 23.5784C288.285 31.7606 295.438 38.3936 304.261 38.3936Z" fill="#FFB8B8"/>
<path d="M383.412 89.2808C382.859 88.6112 382.306 87.9537 381.746 87.3144C381.024 86.4819 380.298 85.6757 379.567 84.8955C371.287 76.0345 362.479 70.4549 352.781 69.8578H352.768L352.624 69.8457L333.298 87.3144L326.729 93.2498L326.872 93.5756L330.417 101.761H392.531C389.733 97.4538 386.688 93.2878 383.412 89.2808Z" fill="#2F2E41"/>
<path d="M286.888 29.543L292.607 27.0509L291.81 19.4004L295.634 25.7317L298.368 24.5406L297.903 20.0777L300.134 23.771L320.445 14.9205C318.537 11.156 315.095 8.24834 310.876 6.83727C306.656 5.42621 302.005 5.62728 297.945 7.39625L295.002 8.67894C290.942 10.4479 287.807 13.6399 286.285 17.5527C284.763 21.4654 284.98 25.7785 286.888 29.543Z" fill="#2F2E41"/>
<path d="M419.253 298.463H85.6605C82.8149 298.46 80.0868 297.41 78.0747 295.545C76.0625 293.679 74.9307 291.149 74.9275 288.51V102.632C74.9298 100.699 75.759 98.8455 77.233 97.4785C78.7071 96.1115 80.7058 95.3426 82.7905 95.3403H421.987C424.108 95.3426 426.141 96.1248 427.641 97.5154C429.14 98.906 429.984 100.791 429.986 102.758V288.51C429.983 291.149 428.851 293.679 426.839 295.545C424.827 297.41 422.099 298.46 419.253 298.463Z" fill="#F2F2F2"/>
<path d="M96.0684 288.51H408.846C411.606 288.51 414.253 287.493 416.205 285.684C418.157 283.874 419.253 281.419 419.253 278.859V121.094C419.253 118.534 418.157 116.079 416.205 114.269C414.253 112.459 411.606 111.442 408.846 111.442H96.0684C93.3081 111.442 90.6608 112.459 88.709 114.269C86.7572 116.079 85.6606 118.534 85.6606 121.094V278.859C85.6606 281.419 86.7572 283.874 88.709 285.684C90.6608 287.493 93.3081 288.51 96.0684 288.51Z" fill="white"/>
<path d="M429.837 102.063H74.7769V96.9955C74.781 94.348 75.9174 91.8101 77.9369 89.9386C79.9563 88.0671 82.6939 87.0149 85.5489 87.0127H419.065C421.92 87.0149 424.657 88.0671 426.677 89.9386C428.696 91.8101 429.833 94.348 429.837 96.9955V102.063Z" fill="#FE5656"/>
<path d="M94.3534 97.1367C95.8923 97.1367 97.1397 95.98 97.1397 94.553C97.1397 93.126 95.8923 91.9692 94.3534 91.9692C92.8146 91.9692 91.5671 93.126 91.5671 94.553C91.5671 95.98 92.8146 97.1367 94.3534 97.1367Z" fill="white"/>
<path d="M104.93 97.1367C106.468 97.1367 107.716 95.98 107.716 94.553C107.716 93.126 106.468 91.9692 104.93 91.9692C103.391 91.9692 102.143 93.126 102.143 94.553C102.143 95.98 103.391 97.1367 104.93 97.1367Z" fill="white"/>
<path d="M115.506 97.1367C117.044 97.1367 118.292 95.98 118.292 94.553C118.292 93.126 117.044 91.9692 115.506 91.9692C113.967 91.9692 112.719 93.126 112.719 94.553C112.719 95.98 113.967 97.1367 115.506 97.1367Z" fill="white"/>
<path d="M262.217 254.296H234.246C232.607 254.295 231.037 253.69 229.878 252.616C228.72 251.542 228.068 250.085 228.066 248.566V222.628C228.068 221.109 228.72 219.653 229.878 218.578C231.037 217.504 232.607 216.9 234.246 216.898H262.217C263.855 216.9 265.426 217.504 266.584 218.578C267.743 219.653 268.394 221.109 268.396 222.628V248.566C268.394 250.085 267.743 251.542 266.584 252.616C265.426 253.69 263.855 254.295 262.217 254.296ZM234.246 218.104C232.952 218.106 231.712 218.583 230.798 219.431C229.883 220.279 229.369 221.429 229.367 222.628V248.566C229.369 249.765 229.883 250.915 230.798 251.763C231.712 252.612 232.952 253.089 234.246 253.09H262.217C263.51 253.089 264.75 252.612 265.665 251.763C266.579 250.915 267.094 249.765 267.095 248.566V222.628C267.094 221.429 266.579 220.279 265.665 219.431C264.75 218.583 263.51 218.106 262.217 218.104H234.246Z" fill="#CCCCCC"/>
<path d="M256.687 247.058H239.775C239.257 247.057 238.761 246.866 238.395 246.527C238.03 246.188 237.824 245.728 237.823 245.248V225.946C237.824 225.466 238.03 225.006 238.395 224.667C238.761 224.328 239.257 224.137 239.775 224.136H252.029C252.474 224.137 252.905 224.277 253.252 224.535L257.909 228.006C258.138 228.175 258.322 228.39 258.448 228.634C258.574 228.878 258.639 229.146 258.639 229.417V245.248C258.638 245.728 258.432 246.188 258.067 246.527C257.701 246.866 257.205 247.057 256.687 247.058ZM239.775 225.343C239.602 225.343 239.437 225.406 239.315 225.52C239.193 225.633 239.124 225.786 239.124 225.946V245.248C239.124 245.408 239.193 245.561 239.315 245.675C239.437 245.788 239.602 245.851 239.775 245.851H256.687C256.86 245.851 257.025 245.788 257.147 245.675C257.269 245.561 257.338 245.408 257.338 245.248V229.417C257.338 229.326 257.316 229.237 257.274 229.156C257.232 229.074 257.171 229.003 257.095 228.947L252.437 225.475C252.321 225.39 252.177 225.343 252.029 225.343H239.775Z" fill="#CCCCCC"/>
<path d="M253.435 232.581H243.027C242.855 232.581 242.689 232.517 242.567 232.404C242.445 232.291 242.377 232.138 242.377 231.978C242.377 231.818 242.445 231.664 242.567 231.551C242.689 231.438 242.855 231.375 243.027 231.375H253.435C253.607 231.375 253.773 231.438 253.895 231.551C254.017 231.664 254.085 231.818 254.085 231.978C254.085 232.138 254.017 232.291 253.895 232.404C253.773 232.517 253.607 232.581 253.435 232.581Z" fill="#CCCCCC"/>
<path d="M253.435 236.201H243.027C242.855 236.201 242.689 236.137 242.567 236.024C242.445 235.911 242.377 235.757 242.377 235.597C242.377 235.437 242.445 235.284 242.567 235.171C242.689 235.058 242.855 234.994 243.027 234.994H253.435C253.607 234.994 253.773 235.058 253.895 235.171C254.017 235.284 254.085 235.437 254.085 235.597C254.085 235.757 254.017 235.911 253.895 236.024C253.773 236.137 253.607 236.201 253.435 236.201Z" fill="#CCCCCC"/>
<path d="M253.435 239.82H243.027C242.855 239.82 242.689 239.756 242.567 239.643C242.445 239.53 242.377 239.376 242.377 239.216C242.377 239.057 242.445 238.903 242.567 238.79C242.689 238.677 242.855 238.613 243.027 238.613H253.435C253.607 238.613 253.773 238.677 253.895 238.79C254.017 238.903 254.085 239.057 254.085 239.216C254.085 239.376 254.017 239.53 253.895 239.643C253.773 239.756 253.607 239.82 253.435 239.82Z" fill="#CCCCCC"/>
<path d="M328.566 254.296H300.595C298.957 254.295 297.386 253.69 296.227 252.616C295.069 251.542 294.417 250.085 294.415 248.566V222.628C294.417 221.109 295.069 219.653 296.227 218.578C297.386 217.504 298.957 216.9 300.595 216.898H328.566C330.204 216.9 331.775 217.504 332.933 218.578C334.092 219.653 334.743 221.109 334.745 222.628V248.566C334.743 250.085 334.092 251.542 332.933 252.616C331.775 253.69 330.204 254.295 328.566 254.296ZM300.595 218.104C299.301 218.106 298.061 218.583 297.147 219.431C296.232 220.279 295.718 221.429 295.716 222.628V248.566C295.718 249.765 296.232 250.915 297.147 251.763C298.061 252.612 299.301 253.089 300.595 253.09H328.566C329.859 253.089 331.099 252.612 332.014 251.763C332.928 250.915 333.443 249.765 333.444 248.566V222.628C333.443 221.429 332.928 220.279 332.014 219.431C331.099 218.583 329.859 218.106 328.566 218.104H300.595Z" fill="#CCCCCC"/>
<path d="M323.687 242.232H305.474C304.956 242.232 304.46 242.041 304.094 241.702C303.729 241.362 303.523 240.902 303.522 240.423V230.772C303.523 230.292 303.729 229.832 304.094 229.493C304.46 229.153 304.956 228.962 305.474 228.962H323.687C324.205 228.962 324.701 229.153 325.066 229.493C325.432 229.832 325.638 230.292 325.639 230.772V240.423C325.638 240.902 325.432 241.362 325.066 241.702C324.701 242.041 324.205 242.232 323.687 242.232ZM305.474 230.168C305.301 230.168 305.136 230.232 305.014 230.345C304.892 230.458 304.823 230.612 304.823 230.772V240.423C304.823 240.583 304.892 240.736 305.014 240.849C305.136 240.962 305.301 241.026 305.474 241.026H323.687C323.86 241.026 324.025 240.962 324.147 240.849C324.269 240.736 324.338 240.583 324.338 240.423V230.772C324.338 230.612 324.269 230.458 324.147 230.345C324.025 230.232 323.86 230.168 323.687 230.168H305.474Z" fill="#CCCCCC"/>
<path d="M314.58 237.189C314.215 237.189 313.857 237.095 313.546 236.916L303.828 231.283C303.682 231.198 303.578 231.063 303.539 230.907C303.501 230.752 303.531 230.588 303.622 230.452C303.713 230.317 303.859 230.221 304.027 230.185C304.195 230.148 304.371 230.176 304.517 230.26L314.236 235.892C314.339 235.952 314.459 235.983 314.581 235.983C314.702 235.983 314.822 235.952 314.925 235.892L324.643 230.26C324.789 230.176 324.966 230.148 325.134 230.185C325.302 230.221 325.447 230.317 325.539 230.452C325.63 230.588 325.66 230.752 325.621 230.907C325.582 231.063 325.479 231.198 325.333 231.283L315.615 236.916C315.304 237.095 314.946 237.189 314.58 237.189Z" fill="#CCCCCC"/>
<path d="M195.867 254.296H167.896C166.258 254.295 164.687 253.69 163.529 252.616C162.37 251.542 161.719 250.085 161.717 248.566V222.628C161.719 221.109 162.37 219.653 163.529 218.578C164.687 217.504 166.258 216.9 167.896 216.898H195.867C197.506 216.9 199.076 217.504 200.235 218.578C201.393 219.653 202.045 221.109 202.047 222.628V248.566C202.045 250.085 201.393 251.542 200.235 252.616C199.076 253.69 197.506 254.295 195.867 254.296ZM167.896 218.104C166.603 218.106 165.363 218.583 164.448 219.431C163.534 220.279 163.019 221.429 163.018 222.628V248.566C163.019 249.765 163.534 250.915 164.448 251.763C165.363 252.612 166.603 253.089 167.896 253.09H195.867C197.161 253.089 198.401 252.612 199.315 251.763C200.23 250.915 200.744 249.765 200.746 248.566V222.628C200.744 221.429 200.23 220.279 199.315 219.431C198.401 218.583 197.161 218.106 195.867 218.104H167.896Z" fill="#CCCCCC"/>
<path d="M190.988 242.232H172.775C172.258 242.232 171.762 242.041 171.396 241.702C171.03 241.362 170.824 240.902 170.823 240.423V230.772C170.824 230.292 171.03 229.832 171.396 229.493C171.762 229.153 172.258 228.962 172.775 228.962H190.988C191.506 228.962 192.002 229.153 192.368 229.493C192.734 229.832 192.939 230.292 192.94 230.772V240.423C192.939 240.902 192.734 241.362 192.368 241.702C192.002 242.041 191.506 242.232 190.988 242.232ZM172.775 230.168C172.602 230.168 172.437 230.232 172.315 230.345C172.193 230.458 172.125 230.612 172.124 230.772V240.423C172.125 240.583 172.193 240.736 172.315 240.849C172.437 240.962 172.602 241.026 172.775 241.026H190.988C191.161 241.026 191.326 240.962 191.448 240.849C191.57 240.736 191.639 240.583 191.639 240.423V230.772C191.639 230.612 191.57 230.458 191.448 230.345C191.326 230.232 191.161 230.168 190.988 230.168H172.775Z" fill="#CCCCCC"/>
<path d="M188.102 242.232H175.011C174.783 242.232 174.559 242.177 174.361 242.071C174.163 241.965 173.999 241.813 173.884 241.629C173.77 241.446 173.71 241.238 173.71 241.026C173.71 240.814 173.77 240.606 173.885 240.423L177.828 234.089C177.942 233.906 178.106 233.753 178.304 233.647C178.502 233.542 178.726 233.486 178.954 233.486C179.183 233.486 179.407 233.542 179.605 233.647C179.803 233.753 179.967 233.906 180.081 234.089L182.628 238.179L184.103 235.81C184.217 235.626 184.382 235.474 184.579 235.368C184.777 235.262 185.001 235.206 185.23 235.206C185.458 235.206 185.683 235.262 185.88 235.368C186.078 235.474 186.242 235.626 186.357 235.81L189.228 240.423C189.343 240.606 189.403 240.814 189.403 241.026C189.403 241.238 189.343 241.446 189.228 241.629C189.114 241.813 188.95 241.965 188.752 242.071C188.554 242.177 188.33 242.232 188.102 242.232ZM188.102 241.026L185.23 236.413L183.191 239.687C183.134 239.779 183.052 239.855 182.953 239.908C182.854 239.961 182.742 239.989 182.628 239.989C182.514 239.989 182.401 239.961 182.302 239.908C182.204 239.855 182.121 239.779 182.064 239.687L178.955 234.692L175.011 241.026H188.102Z" fill="#CCCCCC"/>
<path d="M189.037 233.787C189.756 233.787 190.338 233.247 190.338 232.581C190.338 231.915 189.756 231.375 189.037 231.375C188.319 231.375 187.736 231.915 187.736 232.581C187.736 233.247 188.319 233.787 189.037 233.787Z" fill="#CCCCCC"/>
<path d="M500.108 390.964L492.133 390.963L488.339 362.439L500.109 362.44L500.108 390.964Z" fill="#FFB8B8"/>
<path d="M502.141 398.132L476.427 398.131V397.83C476.427 396.611 476.686 395.404 477.189 394.278C477.692 393.152 478.43 392.129 479.359 391.267C480.288 390.405 481.392 389.722 482.606 389.255C483.82 388.789 485.122 388.549 486.436 388.549H486.437L502.142 388.549L502.141 398.132Z" fill="#2F2E41"/>
<path d="M532.632 390.964L524.657 390.963L520.863 362.439L532.633 362.44L532.632 390.964Z" fill="#FFB8B8"/>
<path d="M534.666 398.132L508.952 398.131V397.83C508.952 396.611 509.21 395.404 509.713 394.278C510.216 393.152 510.954 392.129 511.883 391.267C512.812 390.405 513.916 389.722 515.13 389.255C516.344 388.789 517.646 388.549 518.96 388.549H518.961L534.666 388.549L534.666 398.132Z" fill="#2F2E41"/>
<path d="M530.241 378.598L522.855 376.515C522.305 376.36 521.816 376.058 521.449 375.647C521.083 375.235 520.856 374.733 520.796 374.203L513.91 313.686C513.905 313.613 513.869 313.544 513.812 313.494C513.754 313.444 513.678 313.416 513.599 313.416C513.52 313.409 513.441 313.431 513.379 313.477C513.317 313.523 513.276 313.59 513.267 313.663L501.733 372.293C501.663 372.649 501.517 372.988 501.304 373.291C501.09 373.594 500.814 373.854 500.49 374.056C500.167 374.258 499.804 374.399 499.421 374.469C499.039 374.539 498.645 374.538 498.263 374.465L488.823 372.662C488.131 372.527 487.514 372.166 487.086 371.644C486.658 371.122 486.448 370.474 486.493 369.819L493.509 273.722L541.084 268.962L534.015 376.166C533.969 376.856 533.642 377.503 533.1 377.976C532.558 378.45 531.842 378.715 531.098 378.717C530.807 378.716 530.519 378.677 530.241 378.598Z" fill="#2F2E41"/>
<path d="M530.196 190.037C539.02 190.037 546.173 183.404 546.173 175.221C546.173 167.039 539.02 160.406 530.196 160.406C521.372 160.406 514.219 167.039 514.219 175.221C514.219 183.404 521.372 190.037 530.196 190.037Z" fill="#FFB8B8"/>
<path d="M493.436 274.287L503.751 214.056C504.3 210.854 505.578 207.797 507.5 205.088C509.421 202.379 511.943 200.081 514.897 198.346C517.852 196.611 521.17 195.48 524.633 195.027C528.095 194.574 531.622 194.81 534.978 195.72C540.847 197.293 545.871 200.84 549.071 205.665C552.271 210.491 553.416 216.249 552.282 221.815L541.49 275.604L493.436 274.287Z" fill="#FE5656"/>
<path d="M534.607 285.063C535.405 284.575 536.077 283.93 536.578 283.174C537.078 282.418 537.393 281.57 537.501 280.689C537.61 279.808 537.508 278.915 537.205 278.075C536.901 277.234 536.402 276.465 535.743 275.822L546.408 256.67L534.397 257.859L526.111 275.864C525.02 276.962 524.401 278.393 524.372 279.885C524.343 281.378 524.905 282.829 525.952 283.963C526.999 285.097 528.459 285.835 530.054 286.038C531.649 286.241 533.269 285.894 534.607 285.063Z" fill="#FFB8B8"/>
<path d="M536.891 272.444C536.301 272.367 535.75 272.125 535.312 271.75L531.232 268.254C530.791 267.874 530.486 267.378 530.359 266.833C530.232 266.288 530.289 265.719 530.521 265.205L538.677 247.279L537.52 211.859C537.686 210.72 538.093 209.623 538.717 208.631C539.34 207.638 540.169 206.769 541.155 206.073C542.141 205.378 543.266 204.869 544.464 204.577C545.662 204.284 546.911 204.214 548.139 204.369C549.366 204.524 550.549 204.902 551.619 205.482C552.689 206.061 553.625 206.83 554.375 207.745C555.124 208.661 555.671 209.704 555.986 210.815C556.3 211.926 556.375 213.084 556.206 214.223L558.184 236.488C558.786 243.246 556.72 249.976 552.371 255.427L539.652 271.371C539.408 271.677 539.096 271.932 538.738 272.12C538.38 272.307 537.983 272.423 537.574 272.459C537.346 272.479 537.117 272.474 536.891 272.444Z" fill="#FE5656"/>
<path d="M438.192 167.15C438.366 168.022 438.744 168.848 439.3 169.57C439.855 170.291 440.575 170.891 441.407 171.327C442.24 171.763 443.166 172.025 444.119 172.093C445.073 172.162 446.031 172.035 446.926 171.723L461.786 188.298L465.289 177.578L450.64 163.482C449.975 162.122 448.795 161.036 447.324 160.429C445.854 159.822 444.194 159.737 442.659 160.189C441.125 160.641 439.823 161.599 438.999 162.882C438.176 164.165 437.889 165.684 438.192 167.15Z" fill="#FFB8B8"/>
<path d="M449.833 174.02C450.14 173.546 450.595 173.17 451.138 172.943L456.201 170.821C456.75 170.593 457.361 170.526 457.952 170.63C458.543 170.735 459.085 171.004 459.505 171.404L474.127 185.357L509.751 198.179C510.818 198.765 511.749 199.54 512.492 200.459C513.235 201.379 513.775 202.426 514.081 203.539C514.388 204.653 514.454 205.811 514.278 206.949C514.101 208.086 513.684 209.18 513.051 210.168C512.418 211.156 511.582 212.019 510.589 212.706C509.596 213.394 508.467 213.894 507.266 214.177C506.065 214.46 504.815 214.52 503.589 214.355C502.362 214.19 501.183 213.802 500.119 213.214L477.237 206.222C470.292 204.101 464.414 199.713 460.697 193.873L449.822 176.797C449.613 176.468 449.481 176.103 449.435 175.724C449.388 175.345 449.428 174.961 449.552 174.598C449.621 174.395 449.715 174.202 449.833 174.02Z" fill="#FE5656"/>
<path opacity="0.1" d="M543.155 226.593L542.504 245.896L530.521 265.205L540.527 243.687L543.155 226.593Z" fill="black"/>
<path d="M528.366 178.006C527.362 178.126 526.345 177.906 525.504 177.384C524.663 176.862 524.055 176.075 523.792 175.169C523.539 174.126 522.984 173.167 522.188 172.394C521.391 171.621 520.383 171.064 519.271 170.782C516.34 170.161 512.758 171.44 510.611 169.381C510.151 168.911 509.818 168.346 509.64 167.733C509.462 167.121 509.443 166.478 509.586 165.857C509.982 163.856 511.525 162.344 513.205 161.135C516.74 158.603 521.017 157.12 525.477 156.882C527.785 156.82 530.095 156.927 532.386 157.201C534.784 157.341 537.156 157.743 539.452 158.399C542.069 159.314 544.394 160.827 546.213 162.796C548.033 164.766 549.287 167.128 549.861 169.667C550.386 172.212 550.305 174.834 549.625 177.348C548.944 179.862 547.68 182.208 545.921 184.222C543.815 186.654 541.099 188.571 538.011 189.807C537.275 190.129 536.432 190.169 535.665 189.917C533.741 189.208 534.056 186.998 534.933 185.524C535.871 183.947 537.316 182.42 536.561 180.501C536.182 179.61 535.456 178.885 534.527 178.47C532.614 177.566 530.475 177.78 528.419 178L528.366 178.006Z" fill="#2F2E41"/>
<path d="M432.853 186.372H235.106C232.261 186.369 229.533 185.32 227.52 183.454C225.508 181.588 224.377 179.058 224.373 176.42V137.212C224.377 134.573 225.508 132.043 227.52 130.177C229.533 128.311 232.261 127.262 235.106 127.259H432.853C435.699 127.262 438.427 128.311 440.439 130.177C442.451 132.043 443.583 134.573 443.586 137.212V176.42C443.583 179.058 442.451 181.588 440.439 183.454C438.427 185.32 435.699 186.369 432.853 186.372Z" fill="white"/>
<path d="M432.853 186.674H235.106C232.174 186.671 229.363 185.589 227.29 183.667C225.217 181.745 224.051 179.138 224.048 176.419V137.211C224.051 134.493 225.217 131.886 227.29 129.964C229.363 128.041 232.174 126.96 235.106 126.957H432.853C435.785 126.96 438.596 128.041 440.669 129.964C442.742 131.886 443.908 134.493 443.911 137.211V176.419C443.908 179.138 442.742 181.745 440.669 183.667C438.596 185.589 435.785 186.671 432.853 186.674ZM235.106 128.163C232.519 128.166 230.039 129.12 228.21 130.817C226.381 132.513 225.352 134.813 225.349 137.211V176.419C225.352 178.818 226.381 181.118 228.21 182.814C230.039 184.511 232.519 185.465 235.106 185.467H432.853C435.44 185.465 437.92 184.511 439.749 182.814C441.578 181.118 442.607 178.818 442.61 176.419V137.211C442.607 134.813 441.578 132.513 439.749 130.817C437.92 129.12 435.44 128.166 432.853 128.163H235.106Z" fill="#3F3D56"/>
<path d="M408.785 176.721H259.174C256.329 176.718 253.6 175.668 251.588 173.803C249.576 171.937 248.444 169.407 248.441 166.768V146.259C248.444 143.621 249.576 141.091 251.588 139.225C253.6 137.359 256.329 136.31 259.174 136.307H408.785C411.631 136.31 414.359 137.359 416.371 139.225C418.383 141.091 419.515 143.621 419.518 146.259V166.768C419.515 169.407 418.383 171.937 416.371 173.803C414.359 175.668 411.631 176.718 408.785 176.721Z" fill="#F2F2F2"/>
<path d="M291.37 165.667C298.459 165.667 304.205 160.338 304.205 153.764C304.205 147.191 298.459 141.862 291.37 141.862C284.281 141.862 278.534 147.191 278.534 153.764C278.534 160.338 284.281 165.667 291.37 165.667Z" fill="#FF6584"/>
<path d="M399.488 175.52L381.37 161.429L363.565 147.582C363.096 147.217 362.502 147.017 361.888 147.018C361.275 147.019 360.682 147.221 360.214 147.588L342.466 161.499L338.131 164.897L331.595 159.813L311.731 144.365C311.262 143.999 310.668 143.8 310.054 143.801C309.441 143.802 308.848 144.004 308.38 144.371L288.58 159.89L268.469 175.654C268.367 175.734 268.295 175.841 268.26 175.96C268.226 176.08 268.233 176.206 268.279 176.322C268.325 176.439 268.408 176.539 268.517 176.61C268.627 176.68 268.757 176.718 268.891 176.718L310.123 176.644L323.174 176.621L323.046 176.721L361.95 176.651L399.071 176.585C399.205 176.585 399.335 176.547 399.444 176.476C399.553 176.404 399.636 176.304 399.681 176.188C399.727 176.071 399.733 175.945 399.698 175.825C399.663 175.706 399.59 175.599 399.488 175.52Z" fill="#3F3D56"/>
<path d="M569.349 399H444.457C444.284 399 444.119 398.936 443.997 398.823C443.875 398.71 443.806 398.557 443.806 398.397C443.806 398.237 443.875 398.083 443.997 397.97C444.119 397.857 444.284 397.793 444.457 397.793H569.349C569.522 397.793 569.687 397.857 569.809 397.97C569.931 398.083 570 398.237 570 398.397C570 398.557 569.931 398.71 569.809 398.823C569.687 398.936 569.522 399 569.349 399Z" fill="#CCCCCC"/>
<path d="M392.928 79.5693C392.409 78.7865 391.723 78.1099 390.912 77.581C390.101 77.0521 389.182 76.6819 388.212 76.493C387.857 76.4237 387.496 76.3814 387.133 76.3663L337.572 35.2764C336.599 34.3485 335.3 33.7732 333.91 33.6538C333.636 33.6246 333.36 33.6165 333.084 33.6297C331.94 33.6778 330.837 34.0339 329.908 34.6544C328.979 35.2749 328.266 36.1329 327.854 37.1235C327.443 38.114 327.352 39.1943 327.592 40.2321C327.833 41.2699 328.394 42.2203 329.207 42.9672L348.182 58.3065L379.34 83.4901C379.365 83.9644 379.442 84.4352 379.567 84.8956C379.94 86.2292 380.742 87.4262 381.865 88.3279C382.988 89.2295 384.381 89.7933 385.857 89.9444C387.204 90.0902 388.568 89.8812 389.793 89.3412C390.764 88.9201 391.625 88.3089 392.317 87.5497C392.388 87.4712 392.453 87.3989 392.519 87.3144C393.428 86.2153 393.955 84.885 394.028 83.5012C394.101 82.1174 393.718 80.7458 392.928 79.5693Z" fill="#FFB8B8"/>
<path d="M308.157 119.169L307.696 101.761L307.305 87.3144L307.038 77.2047L306.511 57.4982C306.407 56.4431 305.974 55.439 305.265 54.6084C304.555 53.7778 303.601 53.1567 302.517 52.8209C301.433 52.4851 300.268 52.4491 299.162 52.7173C298.057 52.9856 297.06 53.5464 296.292 54.3314C296.112 54.5108 295.948 54.7046 295.804 54.9105C295.004 55.9741 294.643 57.2698 294.79 58.5598L295.948 87.3144L296.527 101.761L297.268 120.189C297.054 120.46 296.861 120.744 296.689 121.039C296.227 121.853 295.947 122.745 295.868 123.661C295.788 124.578 295.911 125.5 296.228 126.372C296.558 127.285 297.093 128.124 297.799 128.832C298.504 129.54 299.363 130.102 300.319 130.479C301.276 130.857 302.307 131.043 303.347 131.024C304.386 131.005 305.409 130.783 306.349 130.371C307.44 129.892 308.388 129.172 309.108 128.273C309.828 127.374 310.298 126.325 310.477 125.218C310.655 124.11 310.537 122.979 310.133 121.924C309.728 120.87 309.05 119.923 308.157 119.169Z" fill="#FFB8B8"/>
<path d="M352.781 69.858L348.182 58.3067L340.74 39.5954C340.203 38.234 339.343 37.0022 338.222 35.9914C337.102 34.9806 335.75 34.2167 334.268 33.7565C334.151 33.7203 334.027 33.6841 333.91 33.6539C332.474 33.2498 330.961 33.1386 329.474 33.3281C327.988 33.5176 326.563 34.0033 325.298 34.7517L300.234 49.4939C297.939 50.841 296.298 52.9626 295.659 55.4107C295.019 57.8588 295.431 60.4416 296.806 62.6135C299.941 67.6392 303.356 72.5097 307.039 77.2049C309.959 80.8905 315.397 81.2825 316.341 87.3145H334.821L353.529 71.7399L352.781 69.858Z" fill="#CCCCCC"/>
<path d="M65.8059 211.032C74.1304 211.032 80.8787 204.774 80.8787 197.055C80.8787 189.335 74.1304 183.078 65.8059 183.078C57.4815 183.078 50.7332 189.335 50.7332 197.055C50.7332 204.774 57.4815 211.032 65.8059 211.032Z" fill="#A0616A"/>
<path d="M102.81 187.433C102.958 187.543 103.102 187.659 103.242 187.782C103.934 188.387 104.481 189.12 104.846 189.935C105.211 190.749 105.387 191.626 105.361 192.508C105.336 193.39 105.109 194.257 104.697 195.052C104.285 195.847 103.697 196.552 102.97 197.122C102.801 197.253 102.624 197.377 102.441 197.492L103.461 229.428C103.49 230.473 103.155 231.5 102.505 232.355C101.855 233.209 100.926 233.847 99.854 234.173L99.7919 234.186L71.8284 236.947C71.0682 237.022 70.2995 236.957 69.5666 236.755C68.8338 236.553 68.1514 236.218 67.5589 235.77C66.9663 235.322 66.4753 234.77 66.1142 234.145C65.7531 233.52 65.5291 232.835 65.4551 232.129C65.3812 231.423 65.4587 230.711 65.6832 230.033C65.9077 229.356 66.2747 228.726 66.7631 228.181C67.2515 227.635 67.8516 227.185 68.5287 226.856C69.2059 226.527 69.9466 226.325 70.7082 226.263L90.6418 224.635L94.0891 196.977C93.8636 196.792 93.6524 196.593 93.4571 196.38C92.3763 195.194 91.8094 193.678 91.8665 192.126C91.9237 190.574 92.6008 189.097 93.7664 187.981C94.9321 186.866 96.503 186.193 98.1741 186.091C99.8453 185.99 101.497 186.468 102.81 187.433Z" fill="#A0616A"/>
<path d="M90.6305 391.581H98.1546L101.734 364.671H90.6292L90.6305 391.581Z" fill="#A0616A"/>
<path d="M88.7117 389.304L103.528 389.303C104.768 389.303 105.997 389.53 107.142 389.97C108.288 390.41 109.329 391.055 110.206 391.868C111.083 392.681 111.778 393.646 112.253 394.708C112.727 395.771 112.971 396.909 112.971 398.059V398.344L88.7121 398.345L88.7117 389.304Z" fill="#2F2E41"/>
<path d="M15.8496 381.935L22.3141 385.504L40.2369 364.08L30.6956 358.812L15.8496 381.935Z" fill="#A0616A"/>
<path d="M15.4574 379.067L28.1884 386.096C29.2538 386.685 30.1844 387.462 30.926 388.384C31.6675 389.305 32.2061 390.353 32.5108 391.468C32.8156 392.582 32.8807 393.742 32.7023 394.88C32.5239 396.018 32.1055 397.112 31.4711 398.1L31.3141 398.344L10.4697 386.836L15.4574 379.067Z" fill="#2F2E41"/>
<path d="M99.9297 382.077H91.5048C90.8227 382.078 90.1643 381.844 89.6571 381.421C89.1499 380.998 88.8298 380.416 88.7588 379.787L80.2653 305.751C80.2439 305.565 80.157 305.39 80.0179 305.254C79.8788 305.118 79.6953 305.029 79.4958 304.999C79.2962 304.969 79.0917 305.001 78.9137 305.09C78.7357 305.179 78.5942 305.319 78.5109 305.49L63.1885 336.952L36.061 377.971C35.7099 378.497 35.1663 378.888 34.5297 379.073C33.8932 379.257 33.2062 379.223 32.5947 378.976L21.7574 374.555C21.3991 374.409 21.0784 374.193 20.8166 373.923C20.5548 373.653 20.3579 373.335 20.2389 372.989C20.1198 372.643 20.0815 372.278 20.1263 371.917C20.1712 371.556 20.2982 371.209 20.4989 370.897L45.4365 332.176L53.0847 299.552C50.6792 285.404 60.9913 264.37 61.0959 264.159L61.147 264.056L89.552 253.761L89.6944 253.922C100.896 288.012 107.723 324.697 102.682 379.73C102.62 380.369 102.304 380.963 101.795 381.397C101.286 381.831 100.621 382.073 99.9297 382.077Z" fill="#2F2E41"/>
<path d="M60.0028 267.503L59.8705 267.245C59.8073 267.122 53.4912 254.769 48.6223 241.566C47.6866 239.013 47.3329 236.308 47.5835 233.621C47.8342 230.935 48.6838 228.326 50.0785 225.959C51.4913 223.569 53.4242 221.476 55.7547 219.814C58.0851 218.153 60.7623 216.958 63.6168 216.306C68.5721 215.204 73.7893 215.79 78.3177 217.957C82.8462 220.124 86.3845 223.727 88.2881 228.11C92.1502 237.066 90.9193 246.625 89.761 254.142L89.7379 254.293L89.5902 254.359L60.0028 267.503Z" fill="#3F3D56"/>
<path d="M84.0812 189.159H60.1475V179.485C65.4007 177.55 70.5412 175.904 73.6486 179.485C76.4155 179.485 79.069 180.504 81.0256 182.318C82.9821 184.133 84.0812 186.593 84.0812 189.159Z" fill="#2F2E41"/>
<path d="M58.8224 177.778C44.5144 177.778 40.5095 194.409 40.5095 203.791C40.5095 209.024 43.0614 210.895 47.0713 211.528L48.4874 204.524L51.8043 211.83C52.9307 211.835 54.114 211.815 55.3408 211.793L56.4654 209.646L58.9732 211.755C69.0172 211.769 77.1351 213.127 77.1351 203.791C77.1351 194.409 73.6228 177.778 58.8224 177.778Z" fill="#2F2E41"/>
<path d="M125.543 399H0.650483C0.477964 399 0.312511 398.936 0.190522 398.823C0.0685324 398.71 0 398.557 0 398.397C0 398.237 0.0685324 398.083 0.190522 397.97C0.312511 397.857 0.477964 397.793 0.650483 397.793H125.543C125.716 397.793 125.881 397.857 126.003 397.97C126.125 398.083 126.194 398.237 126.194 398.397C126.194 398.557 126.125 398.71 126.003 398.823C125.881 398.936 125.716 399 125.543 399Z" fill="#CCCCCC"/>
<path d="M127.892 200.547H99.9208C98.2824 200.546 96.7117 199.941 95.5532 198.867C94.3948 197.793 93.7431 196.336 93.7412 194.817V168.879C93.7431 167.36 94.3948 165.904 95.5532 164.829C96.7117 163.755 98.2824 163.151 99.9208 163.149H127.892C129.53 163.151 131.101 163.755 132.259 164.829C133.418 165.904 134.069 167.36 134.071 168.879V194.817C134.069 196.336 133.418 197.793 132.259 198.867C131.101 199.941 129.53 200.546 127.892 200.547Z" fill="white"/>
<path d="M127.892 200.547H99.9208C98.2824 200.546 96.7117 199.941 95.5532 198.867C94.3948 197.793 93.7431 196.336 93.7412 194.817V168.879C93.7431 167.36 94.3948 165.904 95.5532 164.829C96.7117 163.755 98.2824 163.151 99.9208 163.149H127.892C129.53 163.151 131.101 163.755 132.259 164.829C133.418 165.904 134.069 167.36 134.071 168.879V194.817C134.069 196.336 133.418 197.793 132.259 198.867C131.101 199.941 129.53 200.546 127.892 200.547ZM99.9208 164.355C98.6274 164.357 97.3873 164.834 96.4727 165.682C95.5581 166.53 95.0436 167.68 95.0422 168.879V194.817C95.0436 196.016 95.5581 197.166 96.4727 198.014C97.3873 198.863 98.6274 199.34 99.9208 199.341H127.892C129.185 199.34 130.425 198.863 131.34 198.014C132.254 197.166 132.769 196.016 132.77 194.817V168.879C132.769 167.68 132.254 166.53 131.34 165.682C130.425 164.834 129.185 164.357 127.892 164.355H99.9208Z" fill="#3F3D56"/>
<path d="M123.013 189.991H104.8C104.282 189.991 103.786 189.8 103.42 189.461C103.054 189.122 102.849 188.662 102.848 188.182V175.515C102.849 175.035 103.054 174.575 103.42 174.236C103.786 173.896 104.282 173.706 104.8 173.705H109.927C110.26 173.704 110.589 173.783 110.88 173.933C111.171 174.084 111.415 174.302 111.589 174.566L113.019 176.721H123.013C123.531 176.722 124.027 176.912 124.392 177.252C124.758 177.591 124.964 178.051 124.965 178.531V188.182C124.964 188.662 124.758 189.122 124.392 189.461C124.027 189.8 123.531 189.991 123.013 189.991Z" fill="#FE5656"/>
<path d="M122.42 196.391C122.512 196.545 122.596 196.704 122.673 196.868C123.058 197.674 123.255 198.547 123.251 199.429C123.246 200.311 123.041 201.183 122.649 201.986C122.256 202.79 121.685 203.507 120.972 204.092C120.26 204.676 119.422 205.114 118.514 205.378C118.303 205.438 118.089 205.489 117.872 205.528L105.448 235.329C105.037 236.303 104.299 237.129 103.342 237.683C102.385 238.237 101.262 238.49 100.138 238.405L100.075 238.394L73.1474 230.877C72.4153 230.672 71.7341 230.336 71.1432 229.886C70.5522 229.436 70.0633 228.882 69.7045 228.256C69.3458 227.63 69.1244 226.944 69.0531 226.238C68.9818 225.532 69.062 224.82 69.2891 224.143C69.5162 223.466 69.8857 222.837 70.3762 222.293C70.8668 221.75 71.4687 221.301 72.1471 220.974C72.8256 220.647 73.5671 220.448 74.329 220.389C75.0909 220.329 75.858 220.41 76.5859 220.627L95.6388 226.299L110.389 202.049C110.259 201.798 110.148 201.538 110.057 201.272C109.557 199.789 109.669 198.188 110.371 196.778C111.074 195.368 112.316 194.251 113.857 193.642C115.397 193.034 117.127 192.979 118.71 193.486C120.292 193.994 121.615 195.03 122.42 196.391Z" fill="#A0616A"/>
</g>
<defs>
<clipPath id="clip0_409_161">
<rect width="570" height="399" fill="white"/>
</clipPath>
</defs>
</svg>
